<?xml version="1.0" encoding="UTF-8"?>
<svg version="1.1" xmlns="http://www.w3.org/2000/svg" width="113" height="113">
<path d="M0 0 C7.05151365 4.22139519 12.86633876 10.44485158 15.12109375 18.45703125 C15.77808811 22.9747141 15.60349235 27.47260313 15.41015625 32.0234375 C15.23667321 35.24153652 15.23667321 35.24153652 17.5 38.0625 C19.6031419 38.31367609 19.6031419 38.31367609 22 38.0625 C29.59331577 37.87649659 35.86712274 39.39232389 41.875 44.1875 C47.86807547 50.02286296 49.71156832 55.70361525 50.0625 64 C49.80896796 71.58142581 48.10754891 77.57132363 42.5625 82.9375 C36.37167601 87.81511891 31.10046198 89.36232906 23.22485352 89.35302734 C22.40470764 89.35974457 21.58456177 89.36646179 20.73956299 89.37338257 C18.03594866 89.39233723 15.33258283 89.39628525 12.62890625 89.3984375 C10.74470417 89.40486637 8.86050309 89.4115948 6.9763031 89.41860962 C3.02967006 89.43057546 -0.91687549 89.43429107 -4.86352539 89.43310547 C-9.91538223 89.43290213 -14.96667745 89.46022242 -20.01840115 89.49464989 C-23.90894641 89.51690765 -27.79935616 89.52094338 -31.68995857 89.51988602 C-33.55225628 89.52224297 -35.41455766 89.5310718 -37.27679253 89.54655075 C-39.88341316 89.56619143 -42.48881793 89.56038101 -45.09545898 89.54833984 C-45.86084488 89.55957886 -46.62623077 89.57081787 -47.41481018 89.58239746 C-52.5993295 89.52167241 -55.49442246 88.30874413 -59.5 85.0625 C-63.12833663 81.24319828 -63.81000458 78.17970994 -64 73.0625 C-63.79712053 67.93979347 -63.24407512 64.80657512 -59.5 61.0625 C-54.54968962 57.64775227 -50.45469969 56.56627503 -44.5 57.0625 C-44.726875 56.216875 -44.95375 55.37125 -45.1875 54.5 C-45.58084765 50.1731759 -44.51192093 47.8707789 -42.5 44.0625 C-41.93925781 43.63195312 -41.37851562 43.20140625 -40.80078125 42.7578125 C-40.37152344 42.19835937 -39.94226563 41.63890625 -39.5 41.0625 C-39.88628723 38.00308141 -39.88628723 38.00308141 -40.9375 34.625 C-43.06358492 25.65846794 -42.74717033 18.18319871 -37.875 10.1875 C-29.10744983 -1.62404069 -13.65542848 -6.1587469 0 0 Z " fill="#E1E7EC" transform="translate(63.5,23.9375)"/>
<path d="M0 0 C7.15487293 4.28327132 12.88142126 10.51663456 15.10546875 18.65234375 C15.83248867 23.09364367 16.08833558 27.59267775 15.5 32.0625 C14.84 32.7225 14.18 33.3825 13.5 34.0625 C12.819375 33.464375 12.13875 32.86625 11.4375 32.25 C6.50928565 28.58005314 1.80744128 26.42794276 -4.45703125 26.71875 C-10.9954248 27.81890035 -15.2721016 31.36406299 -19.37109375 36.37890625 C-20.68668881 38.17974199 -20.68668881 38.17974199 -21.5 41.0625 C-22.28117187 40.81693359 -22.28117187 40.81693359 -23.078125 40.56640625 C-26.1756875 39.92191341 -29.08841094 39.96838411 -32.25 40 C-34.00570312 40.01353516 -34.00570312 40.01353516 -35.796875 40.02734375 C-36.68890625 40.03894531 -37.5809375 40.05054688 -38.5 40.0625 C-42.78387481 32.79853837 -43.25117688 25.66520139 -41.34765625 17.546875 C-38.40291553 8.91620636 -32.27697616 2.95098808 -24.234375 -1.0703125 C-16.85058345 -3.41202925 -7.0881815 -3.19684702 0 0 Z " fill="#FEAC33" transform="translate(63.5,23.9375)"/>
<path d="M0 0 C2.0625 1.5625 2.0625 1.5625 3.0625 2.5625 C3.45117798 6.0606018 3.58318336 7.87608845 1.41796875 10.73046875 C-1.54984915 13.03877156 -3.21204887 13.09975451 -6.9375 13.0625 C-8.484375 13.07796875 -8.484375 13.07796875 -10.0625 13.09375 C-13.5920345 12.44155341 -14.77919899 11.38410865 -16.9375 8.5625 C-17.4044578 5.29379539 -17.59225278 3.46668241 -15.625 0.75 C-10.92380929 -2.55824531 -4.97104824 -2.43264063 0 0 Z " fill="#FFAC32" transform="translate(97.9375,44.4375)"/>
<path d="M0 0 C3.25 0.9375 3.25 0.9375 5.25 2.9375 C5.7993551 6.17869507 6.06919923 7.85443265 5.25 10.9375 C2.1826934 14.98421885 -1.04407547 17.61562745 -6.0625 18.5625 C-9.04534326 17.86881552 -10.08020646 17.48613224 -11.75 14.9375 C-12.89013045 11.8428602 -12.98618594 10.49323163 -11.6875 7.4375 C-5.8479021 -0.09746503 -5.8479021 -0.09746503 0 0 Z " fill="#FFAC32" transform="translate(85.75,12.0625)"/>
<path d="M0 0 C4.8775209 1.57072707 7.83326786 3.9272007 10.6875 8.1875 C11.29810014 11.85110087 11.41517424 13.86056463 9.625 17.125 C6.29925268 18.94879692 4.43260037 18.86284597 0.6875 18.1875 C-3.57345878 15.1705624 -6.8707203 12.10187869 -8.0625 6.9375 C-6.74449694 2.10482213 -5.08760713 0.28797776 0 0 Z " fill="#FFAC32" transform="translate(16.3125,11.8125)"/>
<path d="M0 0 C2.4603702 0.03727834 3.67518199 0.28173993 5.7265625 1.66015625 C7.54136876 4.28216161 7.39844198 6.27673915 7.375 9.4375 C7.38273437 10.47777344 7.39046875 11.51804687 7.3984375 12.58984375 C6.9545905 15.83166745 6.33723511 17.23277423 4 19.5 C-0.37855495 19.96913089 -2.29584707 19.96943529 -6 17.5 C-7.98946625 12.79762524 -7.57816318 7.23448955 -6 2.5 C-3.71485088 0.21485088 -3.11070232 0.13723687 0 0 Z " fill="#FFAC32" transform="translate(50,-0.5)"/>
<path d="M0 0 C1.54163175 3.0832635 1.29747535 5.60878099 1 9 C-1.2627461 11.34355846 -2.66797573 11.95454164 -5.91015625 12.3984375 C-7.47056641 12.38683594 -7.47056641 12.38683594 -9.0625 12.375 C-10.62677734 12.38660156 -10.62677734 12.38660156 -12.22265625 12.3984375 C-15 12 -15 12 -16.8515625 10.73046875 C-18.959633 7.55402239 -18.29554589 4.72387817 -18 1 C-13.32876233 -3.67123767 -5.54899739 -2.9377045 0 0 Z " fill="#FFAC32" transform="translate(18,45)"/>
</svg>
